<svg xmlns="http://www.w3.org/2000/svg" width="160" height="160" viewBox="0 0 160 160" role="img" aria-labelledby="title">
  <title id="title">おすすめカードローンを案内する人物イラスト</title>
  <rect width="160" height="160" rx="24" fill="#eef9f1"/>
  <path d="M41 128c6-22 77-23 84 0l8 25H32z" fill="#1f9b7a"/>
  <circle cx="81" cy="62" r="34" fill="#ffd7bd" stroke="#3f3029" stroke-width="3"/>
  <path d="M48 63c-3-30 15-48 37-47 21 1 33 18 29 46-16-1-33-8-45-20-4 10-11 17-21 21z" fill="#5d4037"/>
  <circle cx="69" cy="67" r="3" fill="#222"/>
  <circle cx="96" cy="67" r="3" fill="#222"/>
  <path d="M73 82c6 6 15 6 22 0" fill="none" stroke="#d86d6d" stroke-width="4" stroke-linecap="round"/>
  <rect x="104" y="55" width="36" height="25" rx="6" fill="#fff" stroke="#ff8f1f" stroke-width="4"/>
  <path d="M110 67h24" stroke="#ff8f1f" stroke-width="4" stroke-linecap="round"/>
  <path d="M37 107c11-3 20-11 26-24" fill="none" stroke="#ffd7bd" stroke-width="12" stroke-linecap="round"/>
  <path d="M113 105c-9-5-18-12-26-22" fill="none" stroke="#ffd7bd" stroke-width="12" stroke-linecap="round"/>
  <circle cx="38" cy="38" r="17" fill="#ffdf4e" stroke="#f2a900" stroke-width="4"/>
  <path d="M30 38l6 6 11-13" fill="none" stroke="#fff" stroke-width="6" stroke-linecap="round" stroke-linejoin="round"/>
  <path d="M121 28l13-9M128 43l16 2M106 24l2-13" stroke="#ffcc00" stroke-width="6" stroke-linecap="round"/>
  <path d="M65 126h34" stroke="#ffffff" stroke-width="5" stroke-linecap="round"/>
</svg>
